<svg version="1.1" xmlns="http://www.w3.org/2000/svg" xmlns:xlink="http://www.w3.org/1999/xlink" width="1124" height="784"><defs><clipPath id="OATcETodiMeR"><path fill="none" stroke="none" d=" M 0 0 L 1124 0 L 1124 784 L 0 784 L 0 0 Z"/></clipPath></defs><g transform="scale(1,1)" clip-path="url(#OATcETodiMeR)"><g><rect fill="rgb(255,255,255)" stroke="none" x="0" y="0" width="1124" height="784" fill-opacity="1"/><path fill="none" stroke="rgb(192,192,192)" paint-order="fill stroke markers" d=" M 12.5 0.5 L 12.5 784.5 M 12.5 0.5 L 12.5 784.5 M 77.5 0.5 L 77.5 784.5 M 142.5 0.5 L 142.5 784.5 M 207.5 0.5 L 207.5 784.5 M 272.5 0.5 L 272.5 784.5 M 337.5 0.5 L 337.5 784.5 M 402.5 0.5 L 402.5 784.5 M 467.5 0.5 L 467.5 784.5 M 597.5 0.5 L 597.5 784.5 M 662.5 0.5 L 662.5 784.5 M 727.5 0.5 L 727.5 784.5 M 792.5 0.5 L 792.5 784.5 M 857.5 0.5 L 857.5 784.5 M 922.5 0.5 L 922.5 784.5 M 987.5 0.5 L 987.5 784.5 M 1052.5 0.5 L 1052.5 784.5 M 1117.5 0.5 L 1117.5 784.5" stroke-opacity="1" stroke-linecap="round" stroke-linejoin="round" stroke-miterlimit="10"/><path fill="none" stroke="rgb(192,192,192)" paint-order="fill stroke markers" d=" M 25.5 0.5 L 25.5 784.5 M 38.5 0.5 L 38.5 784.5 M 51.5 0.5 L 51.5 784.5 M 64.5 0.5 L 64.5 784.5 M 90.5 0.5 L 90.5 784.5 M 103.5 0.5 L 103.5 784.5 M 116.5 0.5 L 116.5 784.5 M 129.5 0.5 L 129.5 784.5 M 155.5 0.5 L 155.5 784.5 M 168.5 0.5 L 168.5 784.5 M 181.5 0.5 L 181.5 784.5 M 194.5 0.5 L 194.5 784.5 M 220.5 0.5 L 220.5 784.5 M 233.5 0.5 L 233.5 784.5 M 246.5 0.5 L 246.5 784.5 M 259.5 0.5 L 259.5 784.5 M 285.5 0.5 L 285.5 784.5 M 298.5 0.5 L 298.5 784.5 M 311.5 0.5 L 311.5 784.5 M 324.5 0.5 L 324.5 784.5 M 350.5 0.5 L 350.5 784.5 M 363.5 0.5 L 363.5 784.5 M 376.5 0.5 L 376.5 784.5 M 389.5 0.5 L 389.5 784.5 M 415.5 0.5 L 415.5 784.5 M 428.5 0.5 L 428.5 784.5 M 441.5 0.5 L 441.5 784.5 M 454.5 0.5 L 454.5 784.5 M 480.5 0.5 L 480.5 784.5 M 493.5 0.5 L 493.5 784.5 M 506.5 0.5 L 506.5 784.5 M 519.5 0.5 L 519.5 784.5 M 545.5 0.5 L 545.5 784.5 M 558.5 0.5 L 558.5 784.5 M 571.5 0.5 L 571.5 784.5 M 584.5 0.5 L 584.5 784.5 M 610.5 0.5 L 610.5 784.5 M 623.5 0.5 L 623.5 784.5 M 636.5 0.5 L 636.5 784.5 M 649.5 0.5 L 649.5 784.5 M 675.5 0.5 L 675.5 784.5 M 688.5 0.5 L 688.5 784.5 M 701.5 0.5 L 701.5 784.5 M 714.5 0.5 L 714.5 784.5 M 740.5 0.5 L 740.5 784.5 M 753.5 0.5 L 753.5 784.5 M 766.5 0.5 L 766.5 784.5 M 779.5 0.5 L 779.5 784.5 M 805.5 0.5 L 805.5 784.5 M 818.5 0.5 L 818.5 784.5 M 831.5 0.5 L 831.5 784.5 M 844.5 0.5 L 844.5 784.5 M 870.5 0.5 L 870.5 784.5 M 883.5 0.5 L 883.5 784.5 M 896.5 0.5 L 896.5 784.5 M 909.5 0.5 L 909.5 784.5 M 935.5 0.5 L 935.5 784.5 M 948.5 0.5 L 948.5 784.5 M 961.5 0.5 L 961.5 784.5 M 974.5 0.5 L 974.5 784.5 M 1000.5 0.5 L 1000.5 784.5 M 1013.5 0.5 L 1013.5 784.5 M 1026.5 0.5 L 1026.5 784.5 M 1039.5 0.5 L 1039.5 784.5 M 1065.5 0.5 L 1065.5 784.5 M 1078.5 0.5 L 1078.5 784.5 M 1091.5 0.5 L 1091.5 784.5 M 1104.5 0.5 L 1104.5 784.5" stroke-opacity="0.23529411764705882" stroke-linecap="round" stroke-linejoin="round" stroke-miterlimit="10"/><path fill="none" stroke="rgb(192,192,192)" paint-order="fill stroke markers" d=" M 0.5 9.5 L 1124.5 9.5 M 0.5 9.5 L 1124.5 9.5 M 0.5 74.5 L 1124.5 74.5 M 0.5 139.5 L 1124.5 139.5 M 0.5 204.5 L 1124.5 204.5 M 0.5 269.5 L 1124.5 269.5 M 0.5 334.5 L 1124.5 334.5 M 0.5 464.5 L 1124.5 464.5 M 0.5 529.5 L 1124.5 529.5 M 0.5 594.5 L 1124.5 594.5 M 0.5 659.5 L 1124.5 659.5 M 0.5 724.5 L 1124.5 724.5" stroke-opacity="1" stroke-linecap="round" stroke-linejoin="round" stroke-miterlimit="10"/><path fill="none" stroke="rgb(192,192,192)" paint-order="fill stroke markers" d=" M 0.5 9.5 L 1124.5 9.5 M 0.5 22.5 L 1124.5 22.5 M 0.5 35.5 L 1124.5 35.5 M 0.5 48.5 L 1124.5 48.5 M 0.5 61.5 L 1124.5 61.5 M 0.5 87.5 L 1124.5 87.5 M 0.5 100.5 L 1124.5 100.5 M 0.5 113.5 L 1124.5 113.5 M 0.5 126.5 L 1124.5 126.5 M 0.5 152.5 L 1124.5 152.5 M 0.5 165.5 L 1124.5 165.5 M 0.5 178.5 L 1124.5 178.5 M 0.5 191.5 L 1124.5 191.5 M 0.5 217.5 L 1124.5 217.5 M 0.5 230.5 L 1124.5 230.5 M 0.5 243.5 L 1124.5 243.5 M 0.5 256.5 L 1124.5 256.5 M 0.5 282.5 L 1124.5 282.5 M 0.5 295.5 L 1124.5 295.5 M 0.5 308.5 L 1124.5 308.5 M 0.5 321.5 L 1124.5 321.5 M 0.5 347.5 L 1124.5 347.5 M 0.5 360.5 L 1124.5 360.5 M 0.5 373.5 L 1124.5 373.5 M 0.5 386.5 L 1124.5 386.5 M 0.5 412.5 L 1124.5 412.5 M 0.5 425.5 L 1124.5 425.5 M 0.5 438.5 L 1124.5 438.5 M 0.5 451.5 L 1124.5 451.5 M 0.5 477.5 L 1124.5 477.5 M 0.5 490.5 L 1124.5 490.5 M 0.5 503.5 L 1124.5 503.5 M 0.5 516.5 L 1124.5 516.5 M 0.5 542.5 L 1124.5 542.5 M 0.5 555.5 L 1124.5 555.5 M 0.5 568.5 L 1124.5 568.5 M 0.5 581.5 L 1124.5 581.5 M 0.5 607.5 L 1124.5 607.5 M 0.5 620.5 L 1124.5 620.5 M 0.5 633.5 L 1124.5 633.5 M 0.5 646.5 L 1124.5 646.5 M 0.5 672.5 L 1124.5 672.5 M 0.5 685.5 L 1124.5 685.5 M 0.5 698.5 L 1124.5 698.5 M 0.5 711.5 L 1124.5 711.5 M 0.5 737.5 L 1124.5 737.5 M 0.5 750.5 L 1124.5 750.5 M 0.5 763.5 L 1124.5 763.5 M 0.5 776.5 L 1124.5 776.5" stroke-opacity="0.23529411764705882" stroke-linecap="round" stroke-linejoin="round" stroke-miterlimit="10"/><path fill="none" stroke="rgb(37,37,37)" paint-order="fill stroke markers" d=" M 532.5 2.5 L 532.5 784.5" stroke-opacity="1" stroke-miterlimit="10"/><path fill="none" stroke="rgb(37,37,37)" paint-order="fill stroke markers" d=" M 532.5 1.5 L 528.5 5.5" stroke-opacity="1" stroke-miterlimit="10"/><path fill="none" stroke="rgb(37,37,37)" paint-order="fill stroke markers" d=" M 532.5 1.5 L 536.5 5.5" stroke-opacity="1" stroke-miterlimit="10"/><path fill="none" stroke="rgb(37,37,37)" paint-order="fill stroke markers" d=" M 0.5 399.5 L 1122.5 399.5" stroke-opacity="1" stroke-miterlimit="10"/><path fill="none" stroke="rgb(37,37,37)" paint-order="fill stroke markers" d=" M 1123.5 399.5 L 1119.5 395.5" stroke-opacity="1" stroke-miterlimit="10"/><path fill="none" stroke="rgb(37,37,37)" paint-order="fill stroke markers" d=" M 1123.5 399.5 L 1119.5 403.5" stroke-opacity="1" stroke-miterlimit="10"/><text fill="rgb(37,37,37)" stroke="none" font-family="geogebra-sans-serif, sans-serif" font-size="12px" font-style="normal" font-weight="normal" text-decoration="normal" x="7" y="415" text-anchor="start" dominant-baseline="alphabetic" fill-opacity="1">–4</text><text fill="none" stroke="rgb(255,255,255)" font-family="geogebra-sans-serif, sans-serif" font-size="12px" font-style="normal" font-weight="normal" text-decoration="normal" x="7" y="415" text-anchor="start" dominant-baseline="alphabetic" stroke-opacity="1" stroke-linejoin="bevel" stroke-miterlimit="10" stroke-width="3">–4</text><text fill="rgb(37,37,37)" stroke="none" font-family="geogebra-sans-serif, sans-serif" font-size="12px" font-style="normal" font-weight="normal" text-decoration="normal" x="7" y="415" text-anchor="start" dominant-baseline="alphabetic" fill-opacity="1">–4</text><text fill="rgb(37,37,37)" stroke="none" font-family="geogebra-sans-serif, sans-serif" font-size="12px" font-style="normal" font-weight="normal" text-decoration="normal" x="66" y="415" text-anchor="start" dominant-baseline="alphabetic" fill-opacity="1">–3.5</text><text fill="none" stroke="rgb(255,255,255)" font-family="geogebra-sans-serif, sans-serif" font-size="12px" font-style="normal" font-weight="normal" text-decoration="normal" x="66" y="415" text-anchor="start" dominant-baseline="alphabetic" stroke-opacity="1" stroke-linejoin="bevel" stroke-miterlimit="10" stroke-width="3">–3.5</text><text fill="rgb(37,37,37)" stroke="none" font-family="geogebra-sans-serif, sans-serif" font-size="12px" font-style="normal" font-weight="normal" text-decoration="normal" x="66" y="415" text-anchor="start" dominant-baseline="alphabetic" fill-opacity="1">–3.5</text><text fill="rgb(37,37,37)" stroke="none" font-family="geogebra-sans-serif, sans-serif" font-size="12px" font-style="normal" font-weight="normal" text-decoration="normal" x="137" y="415" text-anchor="start" dominant-baseline="alphabetic" fill-opacity="1">–3</text><text fill="none" stroke="rgb(255,255,255)" font-family="geogebra-sans-serif, sans-serif" font-size="12px" font-style="normal" font-weight="normal" text-decoration="normal" x="137" y="415" text-anchor="start" dominant-baseline="alphabetic" stroke-opacity="1" stroke-linejoin="bevel" stroke-miterlimit="10" stroke-width="3">–3</text><text fill="rgb(37,37,37)" stroke="none" font-family="geogebra-sans-serif, sans-serif" font-size="12px" font-style="normal" font-weight="normal" text-decoration="normal" x="137" y="415" text-anchor="start" dominant-baseline="alphabetic" fill-opacity="1">–3</text><text fill="rgb(37,37,37)" stroke="none" font-family="geogebra-sans-serif, sans-serif" font-size="12px" font-style="normal" font-weight="normal" text-decoration="normal" x="196" y="415" text-anchor="start" dominant-baseline="alphabetic" fill-opacity="1">–2.5</text><text fill="none" stroke="rgb(255,255,255)" font-family="geogebra-sans-serif, sans-serif" font-size="12px" font-style="normal" font-weight="normal" text-decoration="normal" x="196" y="415" text-anchor="start" dominant-baseline="alphabetic" stroke-opacity="1" stroke-linejoin="bevel" stroke-miterlimit="10" stroke-width="3">–2.5</text><text fill="rgb(37,37,37)" stroke="none" font-family="geogebra-sans-serif, sans-serif" font-size="12px" font-style="normal" font-weight="normal" text-decoration="normal" x="196" y="415" text-anchor="start" dominant-baseline="alphabetic" fill-opacity="1">–2.5</text><text fill="rgb(37,37,37)" stroke="none" font-family="geogebra-sans-serif, sans-serif" font-size="12px" font-style="normal" font-weight="normal" text-decoration="normal" x="267" y="415" text-anchor="start" dominant-baseline="alphabetic" fill-opacity="1">–2</text><text fill="none" stroke="rgb(255,255,255)" font-family="geogebra-sans-serif, sans-serif" font-size="12px" font-style="normal" font-weight="normal" text-decoration="normal" x="267" y="415" text-anchor="start" dominant-baseline="alphabetic" stroke-opacity="1" stroke-linejoin="bevel" stroke-miterlimit="10" stroke-width="3">–2</text><text fill="rgb(37,37,37)" stroke="none" font-family="geogebra-sans-serif, sans-serif" font-size="12px" font-style="normal" font-weight="normal" text-decoration="normal" x="267" y="415" text-anchor="start" dominant-baseline="alphabetic" fill-opacity="1">–2</text><text fill="rgb(37,37,37)" stroke="none" font-family="geogebra-sans-serif, sans-serif" font-size="12px" font-style="normal" font-weight="normal" text-decoration="normal" x="326" y="415" text-anchor="start" dominant-baseline="alphabetic" fill-opacity="1">–1.5</text><text fill="none" stroke="rgb(255,255,255)" font-family="geogebra-sans-serif, sans-serif" font-size="12px" font-style="normal" font-weight="normal" text-decoration="normal" x="326" y="415" text-anchor="start" dominant-baseline="alphabetic" stroke-opacity="1" stroke-linejoin="bevel" stroke-miterlimit="10" stroke-width="3">–1.5</text><text fill="rgb(37,37,37)" stroke="none" font-family="geogebra-sans-serif, sans-serif" font-size="12px" font-style="normal" font-weight="normal" text-decoration="normal" x="326" y="415" text-anchor="start" dominant-baseline="alphabetic" fill-opacity="1">–1.5</text><text fill="rgb(37,37,37)" stroke="none" font-family="geogebra-sans-serif, sans-serif" font-size="12px" font-style="normal" font-weight="normal" text-decoration="normal" x="397" y="415" text-anchor="start" dominant-baseline="alphabetic" fill-opacity="1">–1</text><text fill="none" stroke="rgb(255,255,255)" font-family="geogebra-sans-serif, sans-serif" font-size="12px" font-style="normal" font-weight="normal" text-decoration="normal" x="397" y="415" text-anchor="start" dominant-baseline="alphabetic" stroke-opacity="1" stroke-linejoin="bevel" stroke-miterlimit="10" stroke-width="3">–1</text><text fill="rgb(37,37,37)" stroke="none" font-family="geogebra-sans-serif, sans-serif" font-size="12px" font-style="normal" font-weight="normal" text-decoration="normal" x="397" y="415" text-anchor="start" dominant-baseline="alphabetic" fill-opacity="1">–1</text><text fill="rgb(37,37,37)" stroke="none" font-family="geogebra-sans-serif, sans-serif" font-size="12px" font-style="normal" font-weight="normal" text-decoration="normal" x="456" y="415" text-anchor="start" dominant-baseline="alphabetic" fill-opacity="1">–0.5</text><text fill="none" stroke="rgb(255,255,255)" font-family="geogebra-sans-serif, sans-serif" font-size="12px" font-style="normal" font-weight="normal" text-decoration="normal" x="456" y="415" text-anchor="start" dominant-baseline="alphabetic" stroke-opacity="1" stroke-linejoin="bevel" stroke-miterlimit="10" stroke-width="3">–0.5</text><text fill="rgb(37,37,37)" stroke="none" font-family="geogebra-sans-serif, sans-serif" font-size="12px" font-style="normal" font-weight="normal" text-decoration="normal" x="456" y="415" text-anchor="start" dominant-baseline="alphabetic" fill-opacity="1">–0.5</text><text fill="rgb(37,37,37)" stroke="none" font-family="geogebra-sans-serif, sans-serif" font-size="12px" font-style="normal" font-weight="normal" text-decoration="normal" x="589" y="415" text-anchor="start" dominant-baseline="alphabetic" fill-opacity="1">0.5</text><text fill="none" stroke="rgb(255,255,255)" font-family="geogebra-sans-serif, sans-serif" font-size="12px" font-style="normal" font-weight="normal" text-decoration="normal" x="589" y="415" text-anchor="start" dominant-baseline="alphabetic" stroke-opacity="1" stroke-linejoin="bevel" stroke-miterlimit="10" stroke-width="3">0.5</text><text fill="rgb(37,37,37)" stroke="none" font-family="geogebra-sans-serif, sans-serif" font-size="12px" font-style="normal" font-weight="normal" text-decoration="normal" x="589" y="415" text-anchor="start" dominant-baseline="alphabetic" fill-opacity="1">0.5</text><text fill="rgb(37,37,37)" stroke="none" font-family="geogebra-sans-serif, sans-serif" font-size="12px" font-style="normal" font-weight="normal" text-decoration="normal" x="660" y="415" text-anchor="start" dominant-baseline="alphabetic" fill-opacity="1">1</text><text fill="none" stroke="rgb(255,255,255)" font-family="geogebra-sans-serif, sans-serif" font-size="12px" font-style="normal" font-weight="normal" text-decoration="normal" x="660" y="415" text-anchor="start" dominant-baseline="alphabetic" stroke-opacity="1" stroke-linejoin="bevel" stroke-miterlimit="10" stroke-width="3">1</text><text fill="rgb(37,37,37)" stroke="none" font-family="geogebra-sans-serif, sans-serif" font-size="12px" font-style="normal" font-weight="normal" text-decoration="normal" x="660" y="415" text-anchor="start" dominant-baseline="alphabetic" fill-opacity="1">1</text><text fill="rgb(37,37,37)" stroke="none" font-family="geogebra-sans-serif, sans-serif" font-size="12px" font-style="normal" font-weight="normal" text-decoration="normal" x="719" y="415" text-anchor="start" dominant-baseline="alphabetic" fill-opacity="1">1.5</text><text fill="none" stroke="rgb(255,255,255)" font-family="geogebra-sans-serif, sans-serif" font-size="12px" font-style="normal" font-weight="normal" text-decoration="normal" x="719" y="415" text-anchor="start" dominant-baseline="alphabetic" stroke-opacity="1" stroke-linejoin="bevel" stroke-miterlimit="10" stroke-width="3">1.5</text><text fill="rgb(37,37,37)" stroke="none" font-family="geogebra-sans-serif, sans-serif" font-size="12px" font-style="normal" font-weight="normal" text-decoration="normal" x="719" y="415" text-anchor="start" dominant-baseline="alphabetic" fill-opacity="1">1.5</text><text fill="rgb(37,37,37)" stroke="none" font-family="geogebra-sans-serif, sans-serif" font-size="12px" font-style="normal" font-weight="normal" text-decoration="normal" x="790" y="415" text-anchor="start" dominant-baseline="alphabetic" fill-opacity="1">2</text><text fill="none" stroke="rgb(255,255,255)" font-family="geogebra-sans-serif, sans-serif" font-size="12px" font-style="normal" font-weight="normal" text-decoration="normal" x="790" y="415" text-anchor="start" dominant-baseline="alphabetic" stroke-opacity="1" stroke-linejoin="bevel" stroke-miterlimit="10" stroke-width="3">2</text><text fill="rgb(37,37,37)" stroke="none" font-family="geogebra-sans-serif, sans-serif" font-size="12px" font-style="normal" font-weight="normal" text-decoration="normal" x="790" y="415" text-anchor="start" dominant-baseline="alphabetic" fill-opacity="1">2</text><text fill="rgb(37,37,37)" stroke="none" font-family="geogebra-sans-serif, sans-serif" font-size="12px" font-style="normal" font-weight="normal" text-decoration="normal" x="849" y="415" text-anchor="start" dominant-baseline="alphabetic" fill-opacity="1">2.5</text><text fill="none" stroke="rgb(255,255,255)" font-family="geogebra-sans-serif, sans-serif" font-size="12px" font-style="normal" font-weight="normal" text-decoration="normal" x="849" y="415" text-anchor="start" dominant-baseline="alphabetic" stroke-opacity="1" stroke-linejoin="bevel" stroke-miterlimit="10" stroke-width="3">2.5</text><text fill="rgb(37,37,37)" stroke="none" font-family="geogebra-sans-serif, sans-serif" font-size="12px" font-style="normal" font-weight="normal" text-decoration="normal" x="849" y="415" text-anchor="start" dominant-baseline="alphabetic" fill-opacity="1">2.5</text><text fill="rgb(37,37,37)" stroke="none" font-family="geogebra-sans-serif, sans-serif" font-size="12px" font-style="normal" font-weight="normal" text-decoration="normal" x="920" y="415" text-anchor="start" dominant-baseline="alphabetic" fill-opacity="1">3</text><text fill="none" stroke="rgb(255,255,255)" font-family="geogebra-sans-serif, sans-serif" font-size="12px" font-style="normal" font-weight="normal" text-decoration="normal" x="920" y="415" text-anchor="start" dominant-baseline="alphabetic" stroke-opacity="1" stroke-linejoin="bevel" stroke-miterlimit="10" stroke-width="3">3</text><text fill="rgb(37,37,37)" stroke="none" font-family="geogebra-sans-serif, sans-serif" font-size="12px" font-style="normal" font-weight="normal" text-decoration="normal" x="920" y="415" text-anchor="start" dominant-baseline="alphabetic" fill-opacity="1">3</text><text fill="rgb(37,37,37)" stroke="none" font-family="geogebra-sans-serif, sans-serif" font-size="12px" font-style="normal" font-weight="normal" text-decoration="normal" x="979" y="415" text-anchor="start" dominant-baseline="alphabetic" fill-opacity="1">3.5</text><text fill="none" stroke="rgb(255,255,255)" font-family="geogebra-sans-serif, sans-serif" font-size="12px" font-style="normal" font-weight="normal" text-decoration="normal" x="979" y="415" text-anchor="start" dominant-baseline="alphabetic" stroke-opacity="1" stroke-linejoin="bevel" stroke-miterlimit="10" stroke-width="3">3.5</text><text fill="rgb(37,37,37)" stroke="none" font-family="geogebra-sans-serif, sans-serif" font-size="12px" font-style="normal" font-weight="normal" text-decoration="normal" x="979" y="415" text-anchor="start" dominant-baseline="alphabetic" fill-opacity="1">3.5</text><text fill="rgb(37,37,37)" stroke="none" font-family="geogebra-sans-serif, sans-serif" font-size="12px" font-style="normal" font-weight="normal" text-decoration="normal" x="1050" y="415" text-anchor="start" dominant-baseline="alphabetic" fill-opacity="1">4</text><text fill="none" stroke="rgb(255,255,255)" font-family="geogebra-sans-serif, sans-serif" font-size="12px" font-style="normal" font-weight="normal" text-decoration="normal" x="1050" y="415" text-anchor="start" dominant-baseline="alphabetic" stroke-opacity="1" stroke-linejoin="bevel" stroke-miterlimit="10" stroke-width="3">4</text><text fill="rgb(37,37,37)" stroke="none" font-family="geogebra-sans-serif, sans-serif" font-size="12px" font-style="normal" font-weight="normal" text-decoration="normal" x="1050" y="415" text-anchor="start" dominant-baseline="alphabetic" fill-opacity="1">4</text><text fill="rgb(37,37,37)" stroke="none" font-family="geogebra-sans-serif, sans-serif" font-size="12px" font-style="normal" font-weight="normal" text-decoration="normal" x="502" y="729" text-anchor="start" dominant-baseline="alphabetic" fill-opacity="1">–2.5</text><text fill="none" stroke="rgb(255,255,255)" font-family="geogebra-sans-serif, sans-serif" font-size="12px" font-style="normal" font-weight="normal" text-decoration="normal" x="502" y="729" text-anchor="start" dominant-baseline="alphabetic" stroke-opacity="1" stroke-linejoin="bevel" stroke-miterlimit="10" stroke-width="3">–2.5</text><text fill="rgb(37,37,37)" stroke="none" font-family="geogebra-sans-serif, sans-serif" font-size="12px" font-style="normal" font-weight="normal" text-decoration="normal" x="502" y="729" text-anchor="start" dominant-baseline="alphabetic" fill-opacity="1">–2.5</text><text fill="rgb(37,37,37)" stroke="none" font-family="geogebra-sans-serif, sans-serif" font-size="12px" font-style="normal" font-weight="normal" text-decoration="normal" x="512" y="664" text-anchor="start" dominant-baseline="alphabetic" fill-opacity="1">–2</text><text fill="none" stroke="rgb(255,255,255)" font-family="geogebra-sans-serif, sans-serif" font-size="12px" font-style="normal" font-weight="normal" text-decoration="normal" x="512" y="664" text-anchor="start" dominant-baseline="alphabetic" stroke-opacity="1" stroke-linejoin="bevel" stroke-miterlimit="10" stroke-width="3">–2</text><text fill="rgb(37,37,37)" stroke="none" font-family="geogebra-sans-serif, sans-serif" font-size="12px" font-style="normal" font-weight="normal" text-decoration="normal" x="512" y="664" text-anchor="start" dominant-baseline="alphabetic" fill-opacity="1">–2</text><text fill="rgb(37,37,37)" stroke="none" font-family="geogebra-sans-serif, sans-serif" font-size="12px" font-style="normal" font-weight="normal" text-decoration="normal" x="502" y="599" text-anchor="start" dominant-baseline="alphabetic" fill-opacity="1">–1.5</text><text fill="none" stroke="rgb(255,255,255)" font-family="geogebra-sans-serif, sans-serif" font-size="12px" font-style="normal" font-weight="normal" text-decoration="normal" x="502" y="599" text-anchor="start" dominant-baseline="alphabetic" stroke-opacity="1" stroke-linejoin="bevel" stroke-miterlimit="10" stroke-width="3">–1.5</text><text fill="rgb(37,37,37)" stroke="none" font-family="geogebra-sans-serif, sans-serif" font-size="12px" font-style="normal" font-weight="normal" text-decoration="normal" x="502" y="599" text-anchor="start" dominant-baseline="alphabetic" fill-opacity="1">–1.5</text><text fill="rgb(37,37,37)" stroke="none" font-family="geogebra-sans-serif, sans-serif" font-size="12px" font-style="normal" font-weight="normal" text-decoration="normal" x="512" y="534" text-anchor="start" dominant-baseline="alphabetic" fill-opacity="1">–1</text><text fill="none" stroke="rgb(255,255,255)" font-family="geogebra-sans-serif, sans-serif" font-size="12px" font-style="normal" font-weight="normal" text-decoration="normal" x="512" y="534" text-anchor="start" dominant-baseline="alphabetic" stroke-opacity="1" stroke-linejoin="bevel" stroke-miterlimit="10" stroke-width="3">–1</text><text fill="rgb(37,37,37)" stroke="none" font-family="geogebra-sans-serif, sans-serif" font-size="12px" font-style="normal" font-weight="normal" text-decoration="normal" x="512" y="534" text-anchor="start" dominant-baseline="alphabetic" fill-opacity="1">–1</text><text fill="rgb(37,37,37)" stroke="none" font-family="geogebra-sans-serif, sans-serif" font-size="12px" font-style="normal" font-weight="normal" text-decoration="normal" x="502" y="469" text-anchor="start" dominant-baseline="alphabetic" fill-opacity="1">–0.5</text><text fill="none" stroke="rgb(255,255,255)" font-family="geogebra-sans-serif, sans-serif" font-size="12px" font-style="normal" font-weight="normal" text-decoration="normal" x="502" y="469" text-anchor="start" dominant-baseline="alphabetic" stroke-opacity="1" stroke-linejoin="bevel" stroke-miterlimit="10" stroke-width="3">–0.5</text><text fill="rgb(37,37,37)" stroke="none" font-family="geogebra-sans-serif, sans-serif" font-size="12px" font-style="normal" font-weight="normal" text-decoration="normal" x="502" y="469" text-anchor="start" dominant-baseline="alphabetic" fill-opacity="1">–0.5</text><text fill="rgb(37,37,37)" stroke="none" font-family="geogebra-sans-serif, sans-serif" font-size="12px" font-style="normal" font-weight="normal" text-decoration="normal" x="508" y="339" text-anchor="start" dominant-baseline="alphabetic" fill-opacity="1">0.5</text><text fill="none" stroke="rgb(255,255,255)" font-family="geogebra-sans-serif, sans-serif" font-size="12px" font-style="normal" font-weight="normal" text-decoration="normal" x="508" y="339" text-anchor="start" dominant-baseline="alphabetic" stroke-opacity="1" stroke-linejoin="bevel" stroke-miterlimit="10" stroke-width="3">0.5</text><text fill="rgb(37,37,37)" stroke="none" font-family="geogebra-sans-serif, sans-serif" font-size="12px" font-style="normal" font-weight="normal" text-decoration="normal" x="508" y="339" text-anchor="start" dominant-baseline="alphabetic" fill-opacity="1">0.5</text><text fill="rgb(37,37,37)" stroke="none" font-family="geogebra-sans-serif, sans-serif" font-size="12px" font-style="normal" font-weight="normal" text-decoration="normal" x="518" y="274" text-anchor="start" dominant-baseline="alphabetic" fill-opacity="1">1</text><text fill="none" stroke="rgb(255,255,255)" font-family="geogebra-sans-serif, sans-serif" font-size="12px" font-style="normal" font-weight="normal" text-decoration="normal" x="518" y="274" text-anchor="start" dominant-baseline="alphabetic" stroke-opacity="1" stroke-linejoin="bevel" stroke-miterlimit="10" stroke-width="3">1</text><text fill="rgb(37,37,37)" stroke="none" font-family="geogebra-sans-serif, sans-serif" font-size="12px" font-style="normal" font-weight="normal" text-decoration="normal" x="518" y="274" text-anchor="start" dominant-baseline="alphabetic" fill-opacity="1">1</text><text fill="rgb(37,37,37)" stroke="none" font-family="geogebra-sans-serif, sans-serif" font-size="12px" font-style="normal" font-weight="normal" text-decoration="normal" x="508" y="209" text-anchor="start" dominant-baseline="alphabetic" fill-opacity="1">1.5</text><text fill="none" stroke="rgb(255,255,255)" font-family="geogebra-sans-serif, sans-serif" font-size="12px" font-style="normal" font-weight="normal" text-decoration="normal" x="508" y="209" text-anchor="start" dominant-baseline="alphabetic" stroke-opacity="1" stroke-linejoin="bevel" stroke-miterlimit="10" stroke-width="3">1.5</text><text fill="rgb(37,37,37)" stroke="none" font-family="geogebra-sans-serif, sans-serif" font-size="12px" font-style="normal" font-weight="normal" text-decoration="normal" x="508" y="209" text-anchor="start" dominant-baseline="alphabetic" fill-opacity="1">1.5</text><text fill="rgb(37,37,37)" stroke="none" font-family="geogebra-sans-serif, sans-serif" font-size="12px" font-style="normal" font-weight="normal" text-decoration="normal" x="518" y="144" text-anchor="start" dominant-baseline="alphabetic" fill-opacity="1">2</text><text fill="none" stroke="rgb(255,255,255)" font-family="geogebra-sans-serif, sans-serif" font-size="12px" font-style="normal" font-weight="normal" text-decoration="normal" x="518" y="144" text-anchor="start" dominant-baseline="alphabetic" stroke-opacity="1" stroke-linejoin="bevel" stroke-miterlimit="10" stroke-width="3">2</text><text fill="rgb(37,37,37)" stroke="none" font-family="geogebra-sans-serif, sans-serif" font-size="12px" font-style="normal" font-weight="normal" text-decoration="normal" x="518" y="144" text-anchor="start" dominant-baseline="alphabetic" fill-opacity="1">2</text><text fill="rgb(37,37,37)" stroke="none" font-family="geogebra-sans-serif, sans-serif" font-size="12px" font-style="normal" font-weight="normal" text-decoration="normal" x="508" y="79" text-anchor="start" dominant-baseline="alphabetic" fill-opacity="1">2.5</text><text fill="none" stroke="rgb(255,255,255)" font-family="geogebra-sans-serif, sans-serif" font-size="12px" font-style="normal" font-weight="normal" text-decoration="normal" x="508" y="79" text-anchor="start" dominant-baseline="alphabetic" stroke-opacity="1" stroke-linejoin="bevel" stroke-miterlimit="10" stroke-width="3">2.5</text><text fill="rgb(37,37,37)" stroke="none" font-family="geogebra-sans-serif, sans-serif" font-size="12px" font-style="normal" font-weight="normal" text-decoration="normal" x="508" y="79" text-anchor="start" dominant-baseline="alphabetic" fill-opacity="1">2.5</text><text fill="rgb(37,37,37)" stroke="none" font-family="geogebra-sans-serif, sans-serif" font-size="12px" font-style="normal" font-weight="normal" text-decoration="normal" x="518" y="415" text-anchor="start" dominant-baseline="alphabetic" fill-opacity="1">0</text><text fill="none" stroke="rgb(255,255,255)" font-family="geogebra-sans-serif, sans-serif" font-size="12px" font-style="normal" font-weight="normal" text-decoration="normal" x="518" y="415" text-anchor="start" dominant-baseline="alphabetic" stroke-opacity="1" stroke-linejoin="bevel" stroke-miterlimit="10" stroke-width="3">0</text><text fill="rgb(37,37,37)" stroke="none" font-family="geogebra-sans-serif, sans-serif" font-size="12px" font-style="normal" font-weight="normal" text-decoration="normal" x="518" y="415" text-anchor="start" dominant-baseline="alphabetic" fill-opacity="1">0</text><path fill="none" stroke="rgb(0,100,0)" paint-order="fill stroke markers" d=" M 296.36718750000006 -6.178406477056058 L 297.46484375 -1.099330701807105 L 298.5625 3.9612063452958637 L 299.66015625000006 9.003204664253133 L 300.75781250000006 14.026664255064077 L 302.95312500000006 24.017967252248354 L 305.1484375 33.93511533684847 L 307.34375000000006 43.778108508864875 L 309.5390625 53.54694676829706 L 311.73437500000006 63.24163011514554 L 313.9296875 72.8621585494098 L 316.12500000000006 82.40853207109046 L 318.3203125000001 91.88075068018708 L 320.515625 101.27881437669947 L 322.71093750000006 110.60272316062827 L 324.90625 119.8524770319728 L 327.10156250000006 129.02807599073367 L 329.296875 138.12952003691032 L 331.49218750000006 147.1568091705033 L 333.6875000000001 156.10994339151227 L 335.88281250000006 164.98892269993712 L 338.0781250000001 173.79374709577823 L 340.2734375 182.52441657903512 L 342.46875000000006 191.18093114970836 L 344.6640625 199.76329080779738 L 346.85937500000006 208.27149555330269 L 349.0546875 216.70554538622383 L 351.25000000000006 225.06544030656124 L 353.4453125000001 233.35118031431466 L 355.64062500000006 241.56276540948397 L 357.8359375000001 249.70019559206952 L 360.03125 257.7634708620709 L 362.22656250000006 265.7525912194886 L 364.421875 273.6675566643221 L 366.61718750000006 281.5083671965719 L 368.8125 289.2750228162375 L 371.00781250000006 296.96752352331936 L 373.2031250000001 304.58586931781724 L 375.39843750000006 312.130060199731 L 377.59375000000006 319.60009616906103 L 379.7890625 326.99597722580694 L 381.98437500000006 334.3177033699691 L 384.1796875 341.565274601547 L 386.37500000000006 348.7386909205413 L 388.5703125000001 355.8379523269515 L 390.76562500000006 362.86305882077767 L 392.9609375000001 369.81401040202 L 395.15625000000006 376.69080707067826 L 397.35156250000006 383.49344882675274 L 399.546875 390.2219356702431 L 401.74218750000006 396.87626760114966 L 403.9375000000001 403.45644461947234 L 406.13281250000006 409.96246672521085 L 408.3281250000001 416.39433391836553 L 410.52343750000006 422.75204619893617 L 412.71875000000006 429.035603566923 L 414.91406250000006 435.2450060223257 L 417.10937500000006 441.38025356514464 L 419.3046875 447.4413461953795 L 421.50000000000006 453.4282839130305 L 423.6953125000001 459.3410667180976 L 425.89062500000006 465.17969461058055 L 428.0859375000001 470.94416759047976 L 430.28125000000006 476.6344856577948 L 432.47656250000006 482.25064881252615 L 434.67187500000006 487.7926570546733 L 436.86718750000006 493.26051038423674 L 439.0625 498.65420880121604 L 441.25781250000006 503.9737523056115 L 443.4531250000001 509.2191408974231 L 445.64843750000006 514.3903745766505 L 447.84375000000006 519.4874533432942 L 452.23437500000006 529.4591461388295 L 456.62500000000006 539.134219284029 L 461.01562500000006 548.5126727788927 L 465.40625000000006 557.5945066234207 L 469.79687500000006 566.3797208176128 L 474.1875000000001 574.8683153614693 L 478.5781250000001 583.0602902549898 L 482.96875000000006 590.9556454981746 L 487.35937500000006 598.5543810910235 L 491.75000000000006 605.8564970335367 L 496.14062500000006 612.8619933257141 L 500.53125000000006 619.5708699675556 L 504.92187500000006 625.9831269590615 L 509.31250000000006 632.0987643002316 L 513.7031250000001 637.9177819910658 L 518.0937500000001 643.4401800315642 L 522.4843750000001 648.6659584217268 L 526.8750000000001 653.5951171615537 L 531.2656250000001 658.2276562510447 L 535.6562500000001 662.5635756902 L 540.046875 666.6028754790193 L 544.4375000000001 670.3455556175031 L 548.828125 673.791616105651 L 553.2187500000001 676.9410569434631 L 557.609375 679.7938781309392 L 562.0000000000001 682.3500796680798 L 566.3906250000001 684.6096615548845 L 570.78125 686.5726237913534 L 575.1718750000001 688.2389663774866 L 579.5625 689.6086893132838 L 583.9531250000001 690.6817925987453 L 588.34375 691.4582762338712 L 592.7343750000001 691.9381402186611 L 597.125 692.1213845531151 L 601.5156250000001 692.0080092372336 L 605.9062500000001 691.5980142710162 L 610.296875 690.8913996544629 L 614.6875000000001 689.8881653875738 L 619.078125 688.588311470349 L 623.4687500000001 686.9918379027885 L 627.859375 685.098744684892 L 632.2500000000001 682.9090318166599 L 636.6406250000001 680.4226992980919 L 641.0312500000001 677.6397471291881 L 645.4218750000001 674.5601753099485 L 649.8125 671.1839838403731 L 654.2031250000001 667.5111727204619 L 658.59375 663.541741950215 L 662.9843750000001 659.2756915296322 L 667.3750000000001 654.7130214587137 L 671.7656250000001 649.8537317374594 L 676.1562500000001 644.6978223658692 L 680.546875 639.2452933439433 L 684.9375000000001 633.4961446716816 L 689.328125 627.4503763490841 L 693.7187500000001 621.1079883761507 L 698.109375 614.4689807528817 L 702.5000000000001 607.5333534792768 L 706.8906250000001 600.301106555336 L 711.2812500000001 592.7722399810597 L 715.6718750000001 584.9467537564473 L 720.0625 576.8246478814993 L 724.4531250000001 568.4059223562153 L 728.84375 559.6905771805959 L 733.2343750000001 550.6786123546403 L 737.625 541.3700278783492 L 742.0156250000001 531.7648237517221 L 746.4062500000001 521.8629999747592 L 748.6015625000001 516.8008557174019 L 750.796875 511.6645565474607 L 752.9921875 506.45410246493554 L 755.1875000000001 501.16949346982614 L 757.3828125000001 495.8107295621331 L 759.578125 490.37781074185614 L 761.7734375000001 484.87073700899487 L 763.9687500000001 479.28950836355 L 766.1640625000001 473.63412480552114 L 768.359375 467.90458633490834 L 770.5546875000001 462.10089295171133 L 772.7500000000001 456.22304465593066 L 774.9453125 450.271041447566 L 777.1406250000001 444.2448833266171 L 779.3359375000001 438.1445702930846 L 781.5312500000001 431.97010234696813 L 783.7265625 425.72147948826773 L 785.9218750000001 419.39870171698306 L 788.1171875000001 413.0017690331147 L 790.3125 406.53068143666246 L 792.5078125000002 399.9854389276259 L 794.7031250000001 393.3660415060058 L 796.8984375000001 386.67248917180166 L 799.09375 379.9047819250136 L 801.2890625000001 373.06291976564125 L 803.4843750000001 366.1469026936853 L 805.6796875 359.15673070914545 L 807.8750000000002 352.09240381202125 L 810.0703125000001 344.95392200231345 L 812.2656250000001 337.7412852800217 L 814.4609375 330.45449364514604 L 816.6562500000002 323.09354709768604 L 818.8515625000001 315.65844563764244 L 821.046875 308.1491892650149 L 823.2421875 300.56577797980344 L 825.4375000000001 292.90821178200764 L 827.6328125000001 285.1764906716283 L 829.828125 277.37061464866497 L 832.0234375000002 269.4905837131173 L 834.2187500000001 261.53639786498616 L 836.4140625 253.508057104271 L 838.609375 245.4055614309719 L 840.8046875000001 237.22891084508842 L 843.0000000000001 228.97810534662142 L 845.1953125 220.65314493557048 L 847.3906250000002 212.25402961193515 L 849.5859375000001 203.78075937571634 L 851.7812500000001 195.23333422691354 L 853.9765625 186.61175416552683 L 856.1718750000001 177.91601919155568 L 858.3671875000001 169.14612930500107 L 860.5625 160.30208450586252 L 862.7578125000002 151.3838847941395 L 864.9531250000001 142.39153016983306 L 867.1484375000001 133.3250206329426 L 869.34375 124.18435618346825 L 871.5390625000002 114.96953682140946 L 873.7343750000001 105.68056254676719 L 875.9296875 96.31743335954104 L 878.125 86.8801492597309 L 880.3203125000001 77.36871024733631 L 882.5156250000001 67.78311632235824 L 884.7109375 58.12336748479623 L 886.9062500000002 48.38946373464978 L 889.1015625000001 38.58140507191996 L 891.296875 28.69919149660609 L 893.4921875 18.742823008708342 L 894.5898437500002 13.736830672539952 L 895.6875000000001 8.71229960822609 L 896.7851562500001 3.6692298157662435 L 897.8828125000001 -1.3923787048395866 L 898.9804687500001 -6.472525953591401" stroke-opacity="0.6980392156862745" stroke-linecap="round" stroke-linejoin="round" stroke-miterlimit="10" stroke-width="2.5"/><text fill="rgb(0,100,0)" stroke="none" font-family="geogebra-sans-serif, sans-serif" font-size="16px" font-style="normal" font-weight="normal" text-decoration="normal" x="298" y="24" text-anchor="start" dominant-baseline="alphabetic" fill-opacity="1">f</text><text fill="none" stroke="rgb(255,255,255)" font-family="geogebra-sans-serif, sans-serif" font-size="16px" font-style="normal" font-weight="normal" text-decoration="normal" x="298" y="24" text-anchor="start" dominant-baseline="alphabetic" stroke-opacity="1" stroke-linejoin="bevel" stroke-miterlimit="10" stroke-width="3">f</text><text fill="rgb(0,100,0)" stroke="none" font-family="geogebra-sans-serif, sans-serif" font-size="16px" font-style="normal" font-weight="normal" text-decoration="normal" x="298" y="24" text-anchor="start" dominant-baseline="alphabetic" fill-opacity="1">f</text></g></g></svg>